<?xml version="1.0" encoding="utf-8"?>
<!-- Generator: Adobe Illustrator 24.2.1, SVG Export Plug-In . SVG Version: 6.00 Build 0)  -->
<svg version="1.1" id="Layer_1" xmlns="http://www.w3.org/2000/svg" xmlns:xlink="http://www.w3.org/1999/xlink" x="0px" y="0px"
	 viewBox="0 0 212.7 212.7" style="enable-background:new 0 0 212.7 212.7;" xml:space="preserve">
<style type="text/css">
	.st0{fill:#3F3F3F;}
	.st1{fill:none;stroke:#FFFFFF;stroke-width:2;stroke-miterlimit:10;}
	.st2{fill:url(#SVGID_1_);}
</style>
<path class="st0" d="M205.4,210.1H7.9c-2.7,0-4.9-2.2-4.9-4.9V7.7c0-2.7,2.2-4.9,4.9-4.9h197.5c2.7,0,4.9,2.2,4.9,4.9v197.5
	C210.3,207.9,208.1,210.1,205.4,210.1z"/>
<g>
	<rect x="36.7" y="36.5" class="st1" width="140" height="140"/>
	<linearGradient id="SVGID_1_" gradientUnits="userSpaceOnUse" x1="25.1352" y1="106.4598" x2="188.2352" y2="106.4598">
		<stop  offset="0" style="stop-color:#F3903F"/>
		<stop  offset="0.4295" style="stop-color:#D84799"/>
		<stop  offset="1" style="stop-color:#27AAE1"/>
	</linearGradient>
	<path class="st2" d="M131.7,120.5c0-6.1-4.9-11-11-11c-6.1,0-11,4.9-11,11s4.9,11,11,11C126.8,131.5,131.7,126.5,131.7,120.5z
		 M131.7,92.5c0-6.1-4.9-11-11-11c-6.1,0-11,4.9-11,11s4.9,11,11,11C126.8,103.5,131.7,98.5,131.7,92.5z M103.7,120.5
		c0-6.1-4.9-11-11-11c-6.1,0-11,4.9-11,11s4.9,11,11,11C98.8,131.5,103.7,126.5,103.7,120.5z M103.7,92.5c0-6.1-4.9-11-11-11
		c-6.1,0-11,4.9-11,11s4.9,11,11,11C98.8,103.5,103.7,98.5,103.7,92.5z M159.7,120.5c0-6.1-4.9-11-11-11s-11,4.9-11,11s4.9,11,11,11
		S159.7,126.5,159.7,120.5z M159.7,92.5c0-6.1-4.9-11-11-11s-11,4.9-11,11s4.9,11,11,11S159.7,98.5,159.7,92.5z M131.7,64.5
		c0-6.1-4.9-11-11-11c-6.1,0-11,4.9-11,11s4.9,11,11,11C126.8,75.5,131.7,70.5,131.7,64.5z M103.7,64.5c0-6.1-4.9-11-11-11
		c-6.1,0-11,4.9-11,11s4.9,11,11,11C98.8,75.5,103.7,70.5,103.7,64.5z M159.7,64.5c0-6.1-4.9-11-11-11s-11,4.9-11,11s4.9,11,11,11
		S159.7,70.5,159.7,64.5z M131.7,148.5c0-6.1-4.9-11-11-11c-6.1,0-11,4.9-11,11s4.9,11,11,11C126.8,159.5,131.7,154.5,131.7,148.5z
		 M103.7,148.5c0-6.1-4.9-11-11-11c-6.1,0-11,4.9-11,11s4.9,11,11,11C98.8,159.5,103.7,154.5,103.7,148.5z M159.7,148.5
		c0-6.1-4.9-11-11-11s-11,4.9-11,11s4.9,11,11,11S159.7,154.5,159.7,148.5z M75.7,120.5c0-6.1-4.9-11-11-11c-6.1,0-11,4.9-11,11
		s4.9,11,11,11C70.8,131.5,75.7,126.5,75.7,120.5z M75.7,92.5c0-6.1-4.9-11-11-11c-6.1,0-11,4.9-11,11s4.9,11,11,11
		C70.8,103.5,75.7,98.5,75.7,92.5z M75.7,64.5c0-6.1-4.9-11-11-11c-6.1,0-11,4.9-11,11s4.9,11,11,11C70.8,75.5,75.7,70.5,75.7,64.5z
		 M75.7,148.5c0-6.1-4.9-11-11-11c-6.1,0-11,4.9-11,11s4.9,11,11,11C70.8,159.5,75.7,154.5,75.7,148.5z M48.2,188H25.1v-23.1h23.1
		V188z M48.2,160H25.1v-23.1h23.1V160z M48.2,132H25.1v-23.1h23.1V132z M48.2,104H25.1V80.9h23.1V104z M48.2,76H25.1V52.9h23.1V76z
		 M48.2,48H25.1V24.9h23.1V48z M76.2,48H53.1V24.9h23.1V48z M104.2,48H81.1V24.9h23.1V48z M132.2,48h-23.1V24.9h23.1V48z M160.2,48
		h-23.1V24.9h23.1V48z M188.2,48h-23.1V24.9h23.1V48z M188.2,76h-23.1V52.9h23.1V76z M188.2,104h-23.1V80.9h23.1V104z M188.2,132
		h-23.1v-23.1h23.1V132z M188.2,160h-23.1v-23.1h23.1V160z M188.2,188h-23.1v-23.1h23.1V188z M76.2,188H53.1v-23.1h23.1V188z
		 M132.2,188h-23.1v-23.1h23.1V188z M104.2,188H81.1v-23.1h23.1V188z M160.2,188h-23.1v-23.1h23.1V188z"/>
</g>
</svg>
