<svg xmlns="http://www.w3.org/2000/svg" width="588" height="417" viewBox="0 0 588 417">
  <title>Factor graph</title>
<style>
  .background { fill: #ffffff; }
  .edge {
    fill: none;
    stroke: #64748b;
    stroke-width: 1.6;
    stroke-opacity: 1.0;
  }
  .variable {
    fill: #e0f2fe;
    stroke: #0369a1;
    stroke-width: 1.8;
  }
  .factor {
    fill: #dc2626;
    stroke: #991b1b;
    stroke-width: 1.8;
  }
  .edge-highlight { stroke-opacity: 1.0; }
  .label {
    fill: #111827;
    font-family: Helvetica, Arial, sans-serif;
    font-size: 14px;
    text-anchor: middle;
    dominant-baseline: middle;
  }
  .label-start { text-anchor: start; }
  .label-end { text-anchor: end; }
</style>
  <rect class="background" x="0" y="0" width="588" height="417"/>
  <path class="edge" d="M 135.63999999999996 45.0 C 164.89 45.0, 171.39 45.0, 200.64 45.0"/>
  <path class="edge" d="M 232.64 45.0 C 315.89 45.0, 334.39 115.4, 417.64 115.4"/>
  <path class="edge" d="M 232.64 45.0 C 315.89 45.0, 334.39 155.4, 417.64 155.4"/>
  <path class="edge" d="M 232.64 45.0 C 315.89 45.0, 334.39 211.4, 417.64 211.4"/>
  <path class="edge" d="M 232.64 125.0 C 315.89 125.0, 334.39 239.4, 417.64 239.4"/>
  <path class="edge" d="M 232.64 125.0 C 315.89 125.0, 334.39 183.4, 417.64 183.4"/>
  <path class="edge" d="M 135.63999999999996 125.0 C 164.89 125.0, 171.39 125.0, 200.64 125.0"/>
  <path class="edge" d="M 232.64 205.0 C 315.89 205.0, 334.39 115.4, 417.64 115.4"/>
  <path class="edge" d="M 232.64 205.0 C 315.89 205.0, 334.39 183.4, 417.64 183.4"/>
  <path class="edge" d="M 135.63999999999996 205.0 C 164.89 205.0, 171.39 205.0, 200.64 205.0"/>
  <path class="edge" d="M 232.64 285.0 C 315.89 285.0, 334.39 155.4, 417.64 155.4"/>
  <path class="edge" d="M 135.63999999999996 285.0 C 164.89 285.0, 171.39 285.0, 200.64 285.0"/>
  <path class="edge" d="M 232.64 365.0 C 315.89 365.0, 334.39 211.4, 417.64 211.4"/>
  <path class="edge" d="M 232.64 365.0 C 315.89 365.0, 334.39 239.4, 417.64 239.4"/>
  <path class="edge" d="M 135.63999999999996 365.0 C 164.89 365.0, 171.39 365.0, 200.64 365.0"/>
  <circle class="variable" cx="216.64" cy="45.0" r="16"/>
  <text class="label" x="216.64" y="74.0">fault</text>
  <circle class="variable" cx="216.64" cy="125.0" r="16"/>
  <text class="label" x="216.64" y="154.0">breaker</text>
  <circle class="variable" cx="216.64" cy="205.0" r="16"/>
  <text class="label" x="216.64" y="234.0">relay12</text>
  <circle class="variable" cx="216.64" cy="285.0" r="16"/>
  <text class="label" x="216.64" y="314.0">relay23</text>
  <circle class="variable" cx="216.64" cy="365.0" r="16"/>
  <text class="label" x="216.64" y="394.0">voltage</text>
  <rect class="factor" x="117.63999999999996" y="36.0" width="18" height="18" rx="3"/>
  <text class="label label-end" x="111.63999999999996" y="45.0">prior_fault</text>
  <rect class="factor" x="417.64" y="106.4" width="18" height="18" rx="3"/>
  <text class="label label-start" x="441.64" y="115.4">fault_relay12</text>
  <rect class="factor" x="417.64" y="146.4" width="18" height="18" rx="3"/>
  <text class="label label-start" x="441.64" y="155.4">fault_relay23</text>
  <rect class="factor" x="417.64" y="202.4" width="18" height="18" rx="3"/>
  <text class="label label-start" x="441.64" y="211.4">fault_voltage</text>
  <rect class="factor" x="417.64" y="230.4" width="18" height="18" rx="3"/>
  <text class="label label-start" x="441.64" y="239.4">breaker_voltage</text>
  <rect class="factor" x="417.64" y="174.4" width="18" height="18" rx="3"/>
  <text class="label label-start" x="441.64" y="183.4">breaker_relay12</text>
  <rect class="factor" x="117.63999999999996" y="196.0" width="18" height="18" rx="3"/>
  <text class="label label-end" x="111.63999999999996" y="205.0">obs_relay12</text>
  <rect class="factor" x="117.63999999999996" y="276.0" width="18" height="18" rx="3"/>
  <text class="label label-end" x="111.63999999999996" y="285.0">obs_relay23</text>
  <rect class="factor" x="117.63999999999996" y="116.0" width="18" height="18" rx="3"/>
  <text class="label label-end" x="111.63999999999996" y="125.0">obs_breaker</text>
  <rect class="factor" x="117.63999999999996" y="356.0" width="18" height="18" rx="3"/>
  <text class="label label-end" x="111.63999999999996" y="365.0">obs_voltage</text>
</svg>
