<svg xmlns="http://www.w3.org/2000/svg" width="397" height="257" viewBox="0 0 397 257">
  <title>Factor graph</title>
<style>
  .background { fill: #ffffff; }
  .edge {
    fill: none;
    stroke: #64748b;
    stroke-width: 1.6;
    stroke-opacity: 1.0;
  }
  .variable {
    fill: #e0f2fe;
    stroke: #0369a1;
    stroke-width: 1.8;
  }
  .factor {
    fill: #dc2626;
    stroke: #991b1b;
    stroke-width: 1.8;
  }
  .edge-highlight { stroke-opacity: 1.0; }
  .label {
    fill: #111827;
    font-family: Helvetica, Arial, sans-serif;
    font-size: 14px;
    text-anchor: middle;
    dominant-baseline: middle;
  }
  .label-start { text-anchor: start; }
  .label-end { text-anchor: end; }
</style>
  <rect class="background" x="0" y="0" width="397" height="257"/>
  <path class="edge" d="M 57.499999999999986 45.0 C 86.75 45.0, 93.25 45.0, 122.5 45.0"/>
  <path class="edge" d="M 154.5 45.0 C 237.75 45.0, 256.25 85.0, 339.5 85.0"/>
  <path class="edge" d="M 154.5 45.0 C 237.75 45.0, 256.25 125.0, 339.5 125.0"/>
  <path class="edge" d="M 57.499999999999986 125.0 C 86.75 125.0, 93.25 125.0, 122.5 125.0"/>
  <path class="edge" d="M 154.5 125.0 C 237.75 125.0, 256.25 85.0, 339.5 85.0"/>
  <path class="edge" d="M 154.5 205.0 C 237.75 205.0, 256.25 125.0, 339.5 125.0"/>
  <circle class="variable" cx="138.5" cy="45.0" r="16"/>
  <text class="label" x="138.5" y="74.0">Bus 1</text>
  <circle class="variable" cx="138.5" cy="125.0" r="16"/>
  <text class="label" x="138.5" y="154.0">Bus 2</text>
  <circle class="variable" cx="138.5" cy="205.0" r="16"/>
  <text class="label" x="138.5" y="234.0">Bus 3</text>
  <rect class="factor" x="39.499999999999986" y="36.0" width="18" height="18" rx="3"/>
  <text class="label label-end" x="33.499999999999986" y="45.0">f1</text>
  <rect class="factor" x="39.499999999999986" y="116.0" width="18" height="18" rx="3"/>
  <text class="label label-end" x="33.499999999999986" y="125.0">f2</text>
  <rect class="factor" x="339.5" y="76.0" width="18" height="18" rx="3"/>
  <text class="label label-start" x="363.5" y="85.0">f3</text>
  <rect class="factor" x="339.5" y="116.0" width="18" height="18" rx="3"/>
  <text class="label label-start" x="363.5" y="125.0">f4</text>
</svg>
