<svg xmlns="http://www.w3.org/2000/svg" width="640" height="497" viewBox="0 0 640 497">
  <title>Factor graph</title>
<style>
  .background { fill: #ffffff; }
  .edge {
    fill: none;
    stroke: #64748b;
    stroke-width: 1.6;
    stroke-opacity: 1.0;
  }
  .variable {
    fill: #e0f2fe;
    stroke: #0369a1;
    stroke-width: 1.8;
  }
  .factor {
    fill: #dc2626;
    stroke: #991b1b;
    stroke-width: 1.8;
  }
  .edge-highlight { stroke-opacity: 1.0; }
  .label {
    fill: #111827;
    font-family: Helvetica, Arial, sans-serif;
    font-size: 14px;
    text-anchor: middle;
    dominant-baseline: middle;
  }
  .label-start { text-anchor: start; }
  .label-end { text-anchor: end; }
</style>
  <rect class="background" x="0" y="0" width="640" height="497"/>
  <path class="edge" d="M 170.32 45.0 C 199.57 45.0, 206.07 45.0, 235.32 45.0"/>
  <path class="edge" d="M 267.32 45.0 C 350.57 45.0, 369.07 85.0, 452.32 85.0"/>
  <path class="edge" d="M 170.32 125.0 C 199.57 125.0, 206.07 125.0, 235.32 125.0"/>
  <path class="edge" d="M 267.32 125.0 C 350.57 125.0, 369.07 85.0, 452.32 85.0"/>
  <path class="edge" d="M 267.32 125.0 C 350.57 125.0, 369.07 165.0, 452.32 165.0"/>
  <path class="edge" d="M 170.32 205.0 C 199.57 205.0, 206.07 205.0, 235.32 205.0"/>
  <path class="edge" d="M 267.32 205.0 C 350.57 205.0, 369.07 165.0, 452.32 165.0"/>
  <path class="edge" d="M 267.32 205.0 C 350.57 205.0, 369.07 245.0, 452.32 245.0"/>
  <path class="edge" d="M 267.32 205.0 C 350.57 205.0, 369.07 285.0, 452.32 285.0"/>
  <path class="edge" d="M 267.32 285.0 C 350.57 285.0, 369.07 245.0, 452.32 245.0"/>
  <path class="edge" d="M 267.32 285.0 C 350.57 285.0, 369.07 365.0, 452.32 365.0"/>
  <path class="edge" d="M 170.32 285.0 C 199.57 285.0, 206.07 285.0, 235.32 285.0"/>
  <path class="edge" d="M 267.32 365.0 C 350.57 365.0, 369.07 285.0, 452.32 285.0"/>
  <path class="edge" d="M 267.32 365.0 C 350.57 365.0, 369.07 365.0, 452.32 365.0"/>
  <path class="edge" d="M 170.32 365.0 C 199.57 365.0, 206.07 365.0, 235.32 365.0"/>
  <path class="edge" d="M 267.32 445.0 C 350.57 445.0, 369.07 365.0, 452.32 365.0"/>
  <path class="edge" d="M 170.32 445.0 C 199.57 445.0, 206.07 445.0, 235.32 445.0"/>
  <circle class="variable" cx="251.32" cy="45.0" r="16"/>
  <text class="label" x="251.32" y="74.0">power</text>
  <circle class="variable" cx="251.32" cy="125.0" r="16"/>
  <text class="label" x="251.32" y="154.0">fuse</text>
  <circle class="variable" cx="251.32" cy="205.0" r="16"/>
  <text class="label" x="251.32" y="234.0">motor</text>
  <circle class="variable" cx="251.32" cy="285.0" r="16"/>
  <text class="label" x="251.32" y="314.0">vibration</text>
  <circle class="variable" cx="251.32" cy="365.0" r="16"/>
  <text class="label" x="251.32" y="394.0">temperature</text>
  <circle class="variable" cx="251.32" cy="445.0" r="16"/>
  <text class="label" x="251.32" y="474.0">trip</text>
  <rect class="factor" x="152.32" y="36.0" width="18" height="18" rx="3"/>
  <text class="label label-end" x="146.32" y="45.0">power_prior</text>
  <rect class="factor" x="152.32" y="116.0" width="18" height="18" rx="3"/>
  <text class="label label-end" x="146.32" y="125.0">fuse_prior</text>
  <rect class="factor" x="152.32" y="196.0" width="18" height="18" rx="3"/>
  <text class="label label-end" x="146.32" y="205.0">motor_prior</text>
  <rect class="factor" x="452.32" y="76.0" width="18" height="18" rx="3"/>
  <text class="label label-start" x="476.32" y="85.0">power_fuse</text>
  <rect class="factor" x="452.32" y="156.0" width="18" height="18" rx="3"/>
  <text class="label label-start" x="476.32" y="165.0">fuse_motor</text>
  <rect class="factor" x="452.32" y="236.0" width="18" height="18" rx="3"/>
  <text class="label label-start" x="476.32" y="245.0">motor_vibration</text>
  <rect class="factor" x="452.32" y="276.0" width="18" height="18" rx="3"/>
  <text class="label label-start" x="476.32" y="285.0">motor_temperature</text>
  <rect class="factor" x="452.32" y="356.0" width="18" height="18" rx="3"/>
  <text class="label label-start" x="476.32" y="365.0">trip_logic</text>
  <rect class="factor" x="152.32" y="276.0" width="18" height="18" rx="3"/>
  <text class="label label-end" x="146.32" y="285.0">obs_vibration</text>
  <rect class="factor" x="152.32" y="356.0" width="18" height="18" rx="3"/>
  <text class="label label-end" x="146.32" y="365.0">obs_temperature</text>
  <rect class="factor" x="152.32" y="436.0" width="18" height="18" rx="3"/>
  <text class="label label-end" x="146.32" y="445.0">obs_trip</text>
</svg>
