<svg xmlns="http://www.w3.org/2000/svg" width="640" height="497" viewBox="0 0 640 497">
  <title>Factor graph</title>
<style>
  .background { fill: #ffffff; }
  .edge {
    fill: none;
    stroke: #64748b;
    stroke-width: 1.6;
    stroke-opacity: 1.0;
  }
  .edge-hitbox {
    fill: none;
    stroke: #000000;
    stroke-width: 14;
    stroke-opacity: 0;
    pointer-events: stroke;
  }
  .variable {
    fill: #e0f2fe;
    stroke: #0369a1;
    stroke-width: 1.8;
  }
  .factor {
    fill: #dc2626;
    stroke: #991b1b;
    stroke-width: 1.8;
  }
  .edge-highlight { stroke-opacity: 1.0; }
  .label {
    fill: #111827;
    font-family: Helvetica, Arial, sans-serif;
    font-size: 14px;
    text-anchor: middle;
    dominant-baseline: middle;
  }
  .label-start { text-anchor: start; }
  .label-end { text-anchor: end; }
</style>
  <rect class="background" x="0" y="0" width="640" height="497"/>
  <path class="edge" d="M 170.32 45.0 C 199.57 45.0, 206.07 45.0, 235.32 45.0"/>
<path class="edge-hitbox" d="M 170.32 45.0 C 199.57 45.0, 206.07 45.0, 235.32 45.0">
  <title>Edge 1

Identity
variable: power
factor: power_prior
variable index: 1
factor index: 1</title>
</path>
  <path class="edge" d="M 267.32 45.0 C 350.57 45.0, 369.07 85.0, 452.32 85.0"/>
<path class="edge-hitbox" d="M 267.32 45.0 C 350.57 45.0, 369.07 85.0, 452.32 85.0">
  <title>Edge 2

Identity
variable: power
factor: power_fuse
variable index: 1
factor index: 4</title>
</path>
  <path class="edge" d="M 170.32 125.0 C 199.57 125.0, 206.07 125.0, 235.32 125.0"/>
<path class="edge-hitbox" d="M 170.32 125.0 C 199.57 125.0, 206.07 125.0, 235.32 125.0">
  <title>Edge 3

Identity
variable: fuse
factor: fuse_prior
variable index: 2
factor index: 2</title>
</path>
  <path class="edge" d="M 267.32 125.0 C 350.57 125.0, 369.07 85.0, 452.32 85.0"/>
<path class="edge-hitbox" d="M 267.32 125.0 C 350.57 125.0, 369.07 85.0, 452.32 85.0">
  <title>Edge 4

Identity
variable: fuse
factor: power_fuse
variable index: 2
factor index: 4</title>
</path>
  <path class="edge" d="M 267.32 125.0 C 350.57 125.0, 369.07 165.0, 452.32 165.0"/>
<path class="edge-hitbox" d="M 267.32 125.0 C 350.57 125.0, 369.07 165.0, 452.32 165.0">
  <title>Edge 5

Identity
variable: fuse
factor: fuse_motor
variable index: 2
factor index: 5</title>
</path>
  <path class="edge" d="M 170.32 205.0 C 199.57 205.0, 206.07 205.0, 235.32 205.0"/>
<path class="edge-hitbox" d="M 170.32 205.0 C 199.57 205.0, 206.07 205.0, 235.32 205.0">
  <title>Edge 6

Identity
variable: motor
factor: motor_prior
variable index: 3
factor index: 3</title>
</path>
  <path class="edge" d="M 267.32 205.0 C 350.57 205.0, 369.07 165.0, 452.32 165.0"/>
<path class="edge-hitbox" d="M 267.32 205.0 C 350.57 205.0, 369.07 165.0, 452.32 165.0">
  <title>Edge 7

Identity
variable: motor
factor: fuse_motor
variable index: 3
factor index: 5</title>
</path>
  <path class="edge" d="M 267.32 205.0 C 350.57 205.0, 369.07 245.0, 452.32 245.0"/>
<path class="edge-hitbox" d="M 267.32 205.0 C 350.57 205.0, 369.07 245.0, 452.32 245.0">
  <title>Edge 8

Identity
variable: motor
factor: motor_vibration
variable index: 3
factor index: 6</title>
</path>
  <path class="edge" d="M 267.32 205.0 C 350.57 205.0, 369.07 285.0, 452.32 285.0"/>
<path class="edge-hitbox" d="M 267.32 205.0 C 350.57 205.0, 369.07 285.0, 452.32 285.0">
  <title>Edge 9

Identity
variable: motor
factor: motor_temperature
variable index: 3
factor index: 7</title>
</path>
  <path class="edge" d="M 267.32 285.0 C 350.57 285.0, 369.07 245.0, 452.32 245.0"/>
<path class="edge-hitbox" d="M 267.32 285.0 C 350.57 285.0, 369.07 245.0, 452.32 245.0">
  <title>Edge 10

Identity
variable: vibration
factor: motor_vibration
variable index: 4
factor index: 6</title>
</path>
  <path class="edge" d="M 267.32 285.0 C 350.57 285.0, 369.07 365.0, 452.32 365.0"/>
<path class="edge-hitbox" d="M 267.32 285.0 C 350.57 285.0, 369.07 365.0, 452.32 365.0">
  <title>Edge 11

Identity
variable: vibration
factor: trip_logic
variable index: 4
factor index: 8</title>
</path>
  <path class="edge" d="M 170.32 285.0 C 199.57 285.0, 206.07 285.0, 235.32 285.0"/>
<path class="edge-hitbox" d="M 170.32 285.0 C 199.57 285.0, 206.07 285.0, 235.32 285.0">
  <title>Edge 12

Identity
variable: vibration
factor: obs_vibration
variable index: 4
factor index: 9</title>
</path>
  <path class="edge" d="M 267.32 365.0 C 350.57 365.0, 369.07 285.0, 452.32 285.0"/>
<path class="edge-hitbox" d="M 267.32 365.0 C 350.57 365.0, 369.07 285.0, 452.32 285.0">
  <title>Edge 13

Identity
variable: temperature
factor: motor_temperature
variable index: 5
factor index: 7</title>
</path>
  <path class="edge" d="M 267.32 365.0 C 350.57 365.0, 369.07 365.0, 452.32 365.0"/>
<path class="edge-hitbox" d="M 267.32 365.0 C 350.57 365.0, 369.07 365.0, 452.32 365.0">
  <title>Edge 14

Identity
variable: temperature
factor: trip_logic
variable index: 5
factor index: 8</title>
</path>
  <path class="edge" d="M 170.32 365.0 C 199.57 365.0, 206.07 365.0, 235.32 365.0"/>
<path class="edge-hitbox" d="M 170.32 365.0 C 199.57 365.0, 206.07 365.0, 235.32 365.0">
  <title>Edge 15

Identity
variable: temperature
factor: obs_temperature
variable index: 5
factor index: 10</title>
</path>
  <path class="edge" d="M 267.32 445.0 C 350.57 445.0, 369.07 365.0, 452.32 365.0"/>
<path class="edge-hitbox" d="M 267.32 445.0 C 350.57 445.0, 369.07 365.0, 452.32 365.0">
  <title>Edge 16

Identity
variable: trip
factor: trip_logic
variable index: 6
factor index: 8</title>
</path>
  <path class="edge" d="M 170.32 445.0 C 199.57 445.0, 206.07 445.0, 235.32 445.0"/>
<path class="edge-hitbox" d="M 170.32 445.0 C 199.57 445.0, 206.07 445.0, 235.32 445.0">
  <title>Edge 17

Identity
variable: trip
factor: obs_trip
variable index: 6
factor index: 11</title>
</path>
<circle class="variable" cx="251.32" cy="45.0" r="16">
  <title>Variable power

Identity
type: DiscreteVariable
index: 1
id: :power
cardinality: 2
degree: 2

Initialization
probability size: not set

States
state count: 2</title>
</circle>
  <text class="label" x="251.32" y="74.0">power</text>
<circle class="variable" cx="251.32" cy="125.0" r="16">
  <title>Variable fuse

Identity
type: DiscreteVariable
index: 2
id: :fuse
cardinality: 2
degree: 3

Initialization
probability size: not set

States
state count: 2</title>
</circle>
  <text class="label" x="251.32" y="154.0">fuse</text>
<circle class="variable" cx="251.32" cy="205.0" r="16">
  <title>Variable motor

Identity
type: DiscreteVariable
index: 3
id: :motor
cardinality: 2
degree: 4

Initialization
probability size: not set

States
state count: 2</title>
</circle>
  <text class="label" x="251.32" y="234.0">motor</text>
<circle class="variable" cx="251.32" cy="285.0" r="16">
  <title>Variable vibration

Identity
type: DiscreteVariable
index: 4
id: :vibration
cardinality: 2
degree: 3

Initialization
probability size: not set

States
state count: 2</title>
</circle>
  <text class="label" x="251.32" y="314.0">vibration</text>
<circle class="variable" cx="251.32" cy="365.0" r="16">
  <title>Variable temperature

Identity
type: DiscreteVariable
index: 5
id: :temperature
cardinality: 2
degree: 3

Initialization
probability size: not set

States
state count: 2</title>
</circle>
  <text class="label" x="251.32" y="394.0">temperature</text>
<circle class="variable" cx="251.32" cy="445.0" r="16">
  <title>Variable trip

Identity
type: DiscreteVariable
index: 6
id: :trip
cardinality: 2
degree: 2

Initialization
probability size: not set

States
state count: 2</title>
</circle>
  <text class="label" x="251.32" y="474.0">trip</text>
<rect class="factor" x="152.32" y="36.0" width="18" height="18" rx="3">
  <title>Factor power_prior

Identity
type: DiscreteFactor
index: 1
id: 1
variables: power
degree: 1

Parameters
table size: 2

Options
initialize: true</title>
</rect>
  <text class="label label-end" x="146.32" y="45.0">power_prior</text>
<rect class="factor" x="152.32" y="116.0" width="18" height="18" rx="3">
  <title>Factor fuse_prior

Identity
type: DiscreteFactor
index: 2
id: 2
variables: fuse
degree: 1

Parameters
table size: 2

Options
initialize: true</title>
</rect>
  <text class="label label-end" x="146.32" y="125.0">fuse_prior</text>
<rect class="factor" x="152.32" y="196.0" width="18" height="18" rx="3">
  <title>Factor motor_prior

Identity
type: DiscreteFactor
index: 3
id: 3
variables: motor
degree: 1

Parameters
table size: 2

Options
initialize: true</title>
</rect>
  <text class="label label-end" x="146.32" y="205.0">motor_prior</text>
<rect class="factor" x="452.32" y="76.0" width="18" height="18" rx="3">
  <title>Factor power_fuse

Identity
type: DiscreteFactor
index: 4
id: 4
variables: power, fuse
degree: 2

Parameters
table size: 2 x 2</title>
</rect>
  <text class="label label-start" x="476.32" y="85.0">power_fuse</text>
<rect class="factor" x="452.32" y="156.0" width="18" height="18" rx="3">
  <title>Factor fuse_motor

Identity
type: DiscreteFactor
index: 5
id: 5
variables: fuse, motor
degree: 2

Parameters
table size: 2 x 2</title>
</rect>
  <text class="label label-start" x="476.32" y="165.0">fuse_motor</text>
<rect class="factor" x="452.32" y="236.0" width="18" height="18" rx="3">
  <title>Factor motor_vibration

Identity
type: DiscreteFactor
index: 6
id: 6
variables: motor, vibration
degree: 2

Parameters
table size: 2 x 2</title>
</rect>
  <text class="label label-start" x="476.32" y="245.0">motor_vibration</text>
<rect class="factor" x="452.32" y="276.0" width="18" height="18" rx="3">
  <title>Factor motor_temperature

Identity
type: DiscreteFactor
index: 7
id: 7
variables: motor, temperature
degree: 2

Parameters
table size: 2 x 2</title>
</rect>
  <text class="label label-start" x="476.32" y="285.0">motor_temperature</text>
<rect class="factor" x="452.32" y="356.0" width="18" height="18" rx="3">
  <title>Factor trip_logic

Identity
type: DiscreteFactor
index: 8
id: 8
variables: vibration, temperature, trip
degree: 3

Parameters
table size: 2 x 2 x 2</title>
</rect>
  <text class="label label-start" x="476.32" y="365.0">trip_logic</text>
<rect class="factor" x="152.32" y="276.0" width="18" height="18" rx="3">
  <title>Factor obs_vibration

Identity
type: DiscreteFactor
index: 9
id: 9
variables: vibration
degree: 1

Parameters
table size: 2

Options
initialize: false</title>
</rect>
  <text class="label label-end" x="146.32" y="285.0">obs_vibration</text>
<rect class="factor" x="152.32" y="356.0" width="18" height="18" rx="3">
  <title>Factor obs_temperature

Identity
type: DiscreteFactor
index: 10
id: 10
variables: temperature
degree: 1

Parameters
table size: 2

Options
initialize: false</title>
</rect>
  <text class="label label-end" x="146.32" y="365.0">obs_temperature</text>
<rect class="factor" x="152.32" y="436.0" width="18" height="18" rx="3">
  <title>Factor obs_trip

Identity
type: DiscreteFactor
index: 11
id: 11
variables: trip
degree: 1

Parameters
table size: 2

Options
initialize: false</title>
</rect>
  <text class="label label-end" x="146.32" y="445.0">obs_trip</text>
</svg>
