<svg xmlns="http://www.w3.org/2000/svg" width="432" height="257" viewBox="0 0 432 257">
<title>Factor graph</title>
<style>
  .background { fill: #ffffff; }
  .edge {
    fill: none;
    stroke: #64748b;
    stroke-width: 1.6;
    stroke-opacity: 1.0;
  }
  .edge-hitbox {
    fill: none;
    stroke: #000000;
    stroke-width: 14;
    stroke-opacity: 0;
    pointer-events: stroke;
  }
  .variable {
    fill: #e0f2fe;
    stroke: #0369a1;
    stroke-width: 1.8;
  }
  .factor {
    fill: #dc2626;
    stroke: #991b1b;
    stroke-width: 1.8;
  }
  .edge-highlight { stroke-opacity: 1.0; }
  .edge-label {
    fill: #64748b;
    font-size: 12px;
    paint-order: stroke;
    stroke: #ffffff;
    stroke-linejoin: round;
    stroke-width: 3px;
    text-anchor: middle;
    dominant-baseline: middle;
  }
  .label {
    fill: #111827;
    font-family: Helvetica, Arial, sans-serif;
    font-size: 14px;
    text-anchor: middle;
    dominant-baseline: middle;
  }
  .label-start { text-anchor: start; }
  .label-end { text-anchor: end; }
</style>
  <rect class="background" x="0" y="0" width="432" height="257"/>
  <path class="edge" d="M 83.68 45.0 C 112.93 45.0, 119.43 45.0, 148.68 45.0"/>
<path class="edge-hitbox" d="M 83.68 45.0 C 112.93 45.0, 119.43 45.0, 148.68 45.0">
  <title>Edge 1

Identity
variable: Bus 1
factor: Slack
variable index: 1
factor index: 1</title>
</path>
  <path class="edge" d="M 180.68 45.0 C 263.93 45.0, 282.43 75.66666666666667, 365.68 75.66666666666667"/>
<path class="edge-hitbox" d="M 180.68 45.0 C 263.93 45.0, 282.43 75.66666666666667, 365.68 75.66666666666667">
  <title>Edge 2

Identity
variable: Bus 1
factor: P12
variable index: 1
factor index: 2</title>
</path>
  <path class="edge" d="M 180.68 45.0 C 263.93 45.0, 282.43 115.66666666666667, 365.68 115.66666666666667"/>
<path class="edge-hitbox" d="M 180.68 45.0 C 263.93 45.0, 282.43 115.66666666666667, 365.68 115.66666666666667">
  <title>Edge 3

Identity
variable: Bus 1
factor: P31
variable index: 1
factor index: 3</title>
</path>
  <path class="edge" d="M 180.68 45.0 C 263.93 45.0, 282.43 143.66666666666669, 365.68 143.66666666666669"/>
<path class="edge-hitbox" d="M 180.68 45.0 C 263.93 45.0, 282.43 143.66666666666669, 365.68 143.66666666666669">
  <title>Edge 4

Identity
variable: Bus 1
factor: P2
variable index: 1
factor index: 4</title>
</path>
  <path class="edge" d="M 180.68 125.0 C 263.93 125.0, 282.43 75.66666666666667, 365.68 75.66666666666667"/>
<path class="edge-hitbox" d="M 180.68 125.0 C 263.93 125.0, 282.43 75.66666666666667, 365.68 75.66666666666667">
  <title>Edge 5

Identity
variable: Bus 2
factor: P12
variable index: 2
factor index: 2</title>
</path>
  <path class="edge" d="M 180.68 125.0 C 263.93 125.0, 282.43 143.66666666666669, 365.68 143.66666666666669"/>
<path class="edge-hitbox" d="M 180.68 125.0 C 263.93 125.0, 282.43 143.66666666666669, 365.68 143.66666666666669">
  <title>Edge 6

Identity
variable: Bus 2
factor: P2
variable index: 2
factor index: 4</title>
</path>
  <path class="edge" d="M 180.68 205.0 C 263.93 205.0, 282.43 115.66666666666667, 365.68 115.66666666666667"/>
<path class="edge-hitbox" d="M 180.68 205.0 C 263.93 205.0, 282.43 115.66666666666667, 365.68 115.66666666666667">
  <title>Edge 7

Identity
variable: Bus 3
factor: P31
variable index: 3
factor index: 3</title>
</path>
  <path class="edge" d="M 180.68 205.0 C 263.93 205.0, 282.43 143.66666666666669, 365.68 143.66666666666669"/>
<path class="edge-hitbox" d="M 180.68 205.0 C 263.93 205.0, 282.43 143.66666666666669, 365.68 143.66666666666669">
  <title>Edge 8

Identity
variable: Bus 3
factor: P2
variable index: 3
factor index: 4</title>
</path>
<circle class="variable" cx="164.68" cy="45.0" r="16">
  <title>Variable Bus 1

Identity
type: GaussianVariable
index: 1
id: :θ₁
dimension: 1
degree: 4

Initialization
mean size: not set
covariance size: not set

Components
component count: 1</title>
</circle>
  <text class="label" x="164.68" y="74.0">Bus 1</text>
<circle class="variable" cx="164.68" cy="125.0" r="16">
  <title>Variable Bus 2

Identity
type: GaussianVariable
index: 2
id: :θ₂
dimension: 1
degree: 2

Initialization
mean size: not set
covariance size: not set

Components
component count: 1</title>
</circle>
  <text class="label" x="164.68" y="154.0">Bus 2</text>
<circle class="variable" cx="164.68" cy="205.0" r="16">
  <title>Variable Bus 3

Identity
type: GaussianVariable
index: 3
id: :θ₃
dimension: 1
degree: 2

Initialization
mean size: not set
covariance size: not set

Components
component count: 1</title>
</circle>
  <text class="label" x="164.68" y="234.0">Bus 3</text>
<rect class="factor" x="65.68" y="36.0" width="18" height="18" rx="3">
  <title>Factor Slack

Identity
type: GaussianFactor
index: 1
id: 1
variables: Bus 1
degree: 1

Parameters
mean size: 1
coefficient size: 1 x 1
covariance size: 1 x 1

Options
initialize: false</title>
</rect>
  <text class="label label-end" x="59.68000000000001" y="45.0">Slack</text>
<rect class="factor" x="365.68" y="66.66666666666667" width="18" height="18" rx="3">
  <title>Factor P12

Identity
type: GaussianFactor
index: 2
id: 2
variables: Bus 1, Bus 2
degree: 2

Parameters
mean size: 1
coefficient size: 1 x 2
covariance size: 1 x 1</title>
</rect>
  <text class="label label-start" x="389.68" y="75.66666666666667">P12</text>
<rect class="factor" x="365.68" y="106.66666666666667" width="18" height="18" rx="3">
  <title>Factor P31

Identity
type: GaussianFactor
index: 3
id: 3
variables: Bus 1, Bus 3
degree: 2

Parameters
mean size: 1
coefficient size: 1 x 2
covariance size: 1 x 1</title>
</rect>
  <text class="label label-start" x="389.68" y="115.66666666666667">P31</text>
<rect class="factor" x="365.68" y="134.66666666666669" width="18" height="18" rx="3">
  <title>Factor P2

Identity
type: GaussianFactor
index: 4
id: 4
variables: Bus 1, Bus 2, Bus 3
degree: 3

Parameters
mean size: 1
coefficient size: 1 x 3
covariance size: 1 x 1</title>
</rect>
  <text class="label label-start" x="389.68" y="143.66666666666669">P2</text>
</svg>
