<svg xmlns="http://www.w3.org/2000/svg" width="397" height="257" viewBox="0 0 397 257">
<title>Factor graph</title>
<style>
  .background { fill: #ffffff; }
  .edge {
    fill: none;
    stroke: #64748b;
    stroke-width: 1.6;
    stroke-opacity: 1.0;
  }
  .edge-hitbox {
    fill: none;
    stroke: #000000;
    stroke-width: 14;
    stroke-opacity: 0;
    pointer-events: stroke;
  }
  .variable {
    fill: #e0f2fe;
    stroke: #0369a1;
    stroke-width: 1.8;
  }
  .factor {
    fill: #dc2626;
    stroke: #991b1b;
    stroke-width: 1.8;
  }
  .edge-highlight { stroke-opacity: 1.0; }
  .edge-label {
    fill: #64748b;
    font-size: 12px;
    paint-order: stroke;
    stroke: #ffffff;
    stroke-linejoin: round;
    stroke-width: 3px;
    text-anchor: middle;
    dominant-baseline: middle;
  }
  .label {
    fill: #111827;
    font-family: Helvetica, Arial, sans-serif;
    font-size: 14px;
    text-anchor: middle;
    dominant-baseline: middle;
  }
  .label-start { text-anchor: start; }
  .label-end { text-anchor: end; }
</style>
  <rect class="background" x="0" y="0" width="397" height="257"/>
  <path class="edge" d="M 57.499999999999986 45.0 C 86.75 45.0, 93.25 45.0, 122.5 45.0"/>
<path class="edge-hitbox" d="M 57.499999999999986 45.0 C 86.75 45.0, 93.25 45.0, 122.5 45.0">
  <title>Edge 1

Identity
variable: Bus 1
factor: f1
variable index: 1
factor index: 1</title>
</path>
  <path class="edge" d="M 154.5 45.0 C 237.75 45.0, 256.25 85.0, 339.5 85.0"/>
<path class="edge-hitbox" d="M 154.5 45.0 C 237.75 45.0, 256.25 85.0, 339.5 85.0">
  <title>Edge 2

Identity
variable: Bus 1
factor: f3
variable index: 1
factor index: 3</title>
</path>
  <path class="edge" d="M 154.5 45.0 C 237.75 45.0, 256.25 125.0, 339.5 125.0"/>
<path class="edge-hitbox" d="M 154.5 45.0 C 237.75 45.0, 256.25 125.0, 339.5 125.0">
  <title>Edge 3

Identity
variable: Bus 1
factor: f4
variable index: 1
factor index: 4</title>
</path>
  <path class="edge" d="M 57.499999999999986 125.0 C 86.75 125.0, 93.25 125.0, 122.5 125.0"/>
<path class="edge-hitbox" d="M 57.499999999999986 125.0 C 86.75 125.0, 93.25 125.0, 122.5 125.0">
  <title>Edge 4

Identity
variable: Bus 2
factor: f2
variable index: 2
factor index: 2</title>
</path>
  <path class="edge" d="M 154.5 125.0 C 237.75 125.0, 256.25 85.0, 339.5 85.0"/>
<path class="edge-hitbox" d="M 154.5 125.0 C 237.75 125.0, 256.25 85.0, 339.5 85.0">
  <title>Edge 5

Identity
variable: Bus 2
factor: f3
variable index: 2
factor index: 3</title>
</path>
  <path class="edge" d="M 154.5 205.0 C 237.75 205.0, 256.25 125.0, 339.5 125.0"/>
<path class="edge-hitbox" d="M 154.5 205.0 C 237.75 205.0, 256.25 125.0, 339.5 125.0">
  <title>Edge 6

Identity
variable: Bus 3
factor: f4
variable index: 3
factor index: 4</title>
</path>
<circle class="variable" cx="138.5" cy="45.0" r="16">
  <title>Variable Bus 1

Identity
type: GaussianVariable
index: 1
id: :V₁
dimension: 2
degree: 3

Initialization
mean size: not set
covariance size: not set

Components
component count: 2</title>
</circle>
  <text class="label" x="138.5" y="74.0">Bus 1</text>
<circle class="variable" cx="138.5" cy="125.0" r="16">
  <title>Variable Bus 2

Identity
type: GaussianVariable
index: 2
id: :V₂
dimension: 2
degree: 2

Initialization
mean size: not set
covariance size: not set

Components
component count: 2</title>
</circle>
  <text class="label" x="138.5" y="154.0">Bus 2</text>
<circle class="variable" cx="138.5" cy="205.0" r="16">
  <title>Variable Bus 3

Identity
type: GaussianVariable
index: 3
id: :V₃
dimension: 2
degree: 1

Initialization
mean size: not set
covariance size: not set

Components
component count: 2</title>
</circle>
  <text class="label" x="138.5" y="234.0">Bus 3</text>
<rect class="factor" x="39.499999999999986" y="36.0" width="18" height="18" rx="3">
  <title>Factor f1

Identity
type: GaussianFactor
index: 1
id: 1
variables: Bus 1
degree: 1

Parameters
mean size: 2
coefficient size: 2 x 2
covariance size: 2 x 2

Options
initialize: false</title>
</rect>
  <text class="label label-end" x="33.499999999999986" y="45.0">f1</text>
<rect class="factor" x="39.499999999999986" y="116.0" width="18" height="18" rx="3">
  <title>Factor f2

Identity
type: GaussianFactor
index: 2
id: 2
variables: Bus 2
degree: 1

Parameters
mean size: 2
coefficient size: 2 x 2
covariance size: 2 x 2

Options
initialize: false</title>
</rect>
  <text class="label label-end" x="33.499999999999986" y="125.0">f2</text>
<rect class="factor" x="339.5" y="76.0" width="18" height="18" rx="3">
  <title>Factor f3

Identity
type: GaussianFactor
index: 3
id: 3
variables: Bus 1, Bus 2
degree: 2

Parameters
mean size: 2
coefficient size: 2 x 4
covariance size: 2 x 2</title>
</rect>
  <text class="label label-start" x="363.5" y="85.0">f3</text>
<rect class="factor" x="339.5" y="116.0" width="18" height="18" rx="3">
  <title>Factor f4

Identity
type: GaussianFactor
index: 4
id: 4
variables: Bus 1, Bus 3
degree: 2

Parameters
mean size: 2
coefficient size: 2 x 4
covariance size: 2 x 2</title>
</rect>
  <text class="label label-start" x="363.5" y="125.0">f4</text>
</svg>
