<svg xmlns="http://www.w3.org/2000/svg" width="432" height="257" viewBox="0 0 432 257">
  <title>Factor graph</title>
<style>
  .background { fill: #ffffff; }
  .edge {
    fill: none;
    stroke: #64748b;
    stroke-width: 1.6;
    stroke-opacity: 1.0;
  }
  .variable {
    fill: #e0f2fe;
    stroke: #0369a1;
    stroke-width: 1.8;
  }
  .factor {
    fill: #dc2626;
    stroke: #991b1b;
    stroke-width: 1.8;
  }
  .edge-highlight { stroke-opacity: 1.0; }
  .label {
    fill: #111827;
    font-family: Helvetica, Arial, sans-serif;
    font-size: 14px;
    text-anchor: middle;
    dominant-baseline: middle;
  }
  .label-start { text-anchor: start; }
  .label-end { text-anchor: end; }
</style>
  <rect class="background" x="0" y="0" width="432" height="257"/>
  <path class="edge" d="M 83.68 45.0 C 112.93 45.0, 119.43 45.0, 148.68 45.0"/>
  <path class="edge edge-highlight" d="M 180.68 45.0 C 263.93 45.0, 282.43 75.66666666666667, 365.68 75.66666666666667" style="stroke: #f59e0b; stroke-width: 3"/>
  <path class="edge" d="M 180.68 45.0 C 263.93 45.0, 282.43 115.66666666666667, 365.68 115.66666666666667"/>
  <path class="edge" d="M 180.68 45.0 C 263.93 45.0, 282.43 143.66666666666669, 365.68 143.66666666666669"/>
  <path class="edge edge-highlight" d="M 180.68 125.0 C 263.93 125.0, 282.43 75.66666666666667, 365.68 75.66666666666667" style="stroke: #f59e0b; stroke-width: 3"/>
  <path class="edge" d="M 180.68 125.0 C 263.93 125.0, 282.43 143.66666666666669, 365.68 143.66666666666669"/>
  <path class="edge" d="M 180.68 205.0 C 263.93 205.0, 282.43 115.66666666666667, 365.68 115.66666666666667"/>
  <path class="edge" d="M 180.68 205.0 C 263.93 205.0, 282.43 143.66666666666669, 365.68 143.66666666666669"/>
  <circle class="variable" cx="164.68" cy="45.0" r="16"/>
  <text class="label" x="164.68" y="74.0">Bus 1</text>
  <circle class="variable" cx="164.68" cy="125.0" r="16"/>
  <text class="label" x="164.68" y="154.0">Bus 2</text>
  <circle class="variable" cx="164.68" cy="205.0" r="16"/>
  <text class="label" x="164.68" y="234.0">Bus 3</text>
  <rect class="factor" x="65.68" y="36.0" width="18" height="18" rx="3"/>
  <text class="label label-end" x="59.68000000000001" y="45.0">Slack</text>
  <rect class="factor factor-highlight" x="365.68" y="66.66666666666667" width="18" height="18" rx="3" style="stroke: #f59e0b; fill: #fef3c7; stroke-width: 3"/>
  <text class="label label-start" x="389.68" y="75.66666666666667">P12</text>
  <rect class="factor" x="365.68" y="106.66666666666667" width="18" height="18" rx="3"/>
  <text class="label label-start" x="389.68" y="115.66666666666667">P31</text>
  <rect class="factor" x="365.68" y="134.66666666666669" width="18" height="18" rx="3"/>
  <text class="label label-start" x="389.68" y="143.66666666666669">P2</text>
</svg>
