<svg xmlns="http://www.w3.org/2000/svg" width="964" height="170" viewBox="0 0 964 170">
  <title>Factor graph</title>
<style>
  .background { fill: #ffffff; }
  .edge {
    fill: none;
    stroke: #64748b;
    stroke-width: 1.6;
    stroke-opacity: 1.0;
  }
  .variable {
    fill: #e0f2fe;
    stroke: #0369a1;
    stroke-width: 1.8;
  }
  .factor {
    fill: #dc2626;
    stroke: #991b1b;
    stroke-width: 1.8;
  }
  .edge-highlight { stroke-opacity: 1.0; }
  .label {
    fill: #111827;
    font-family: Helvetica, Arial, sans-serif;
    font-size: 14px;
    text-anchor: middle;
    dominant-baseline: middle;
  }
  .label-start { text-anchor: start; }
  .label-end { text-anchor: end; }
</style>
  <rect class="background" x="0" y="0" width="964" height="170"/>
  <path class="edge" d="M 48.120000000000005 85.0 C 90.87 85.0, 100.37 45.0, 143.12 45.0"/>
  <path class="edge" d="M 48.120000000000005 85.0 C 90.87 85.0, 100.37 125.0, 143.12 125.0"/>
  <path class="edge" d="M 161.12 125.0 C 203.87 125.0, 213.37 85.0, 256.12 85.0"/>
  <path class="edge" d="M 288.12 85.0 C 330.87 85.0, 340.37 85.0, 383.12 85.0"/>
  <path class="edge" d="M 401.12 85.0 C 443.87 85.0, 453.37 85.0, 496.12 85.0"/>
  <path class="edge" d="M 528.12 85.0 C 570.87 85.0, 580.37 45.0, 623.12 45.0"/>
  <path class="edge" d="M 528.12 85.0 C 570.87 85.0, 580.37 125.0, 623.12 125.0"/>
  <path class="edge" d="M 641.12 45.0 C 683.87 45.0, 693.37 85.0, 736.12 85.0"/>
  <path class="edge" d="M 768.12 85.0 C 810.87 85.0, 820.37 85.0, 863.12 85.0"/>
  <circle class="variable" cx="32.120000000000005" cy="85.0" r="16"/>
  <text class="label" x="32.120000000000005" y="114.0">x1</text>
  <circle class="variable" cx="272.12" cy="85.0" r="16"/>
  <text class="label" x="272.12" y="114.0">x2</text>
  <circle class="variable" cx="512.12" cy="85.0" r="16"/>
  <text class="label" x="512.12" y="114.0">x3</text>
  <circle class="variable" cx="752.12" cy="85.0" r="16"/>
  <text class="label" x="752.12" y="114.0">x4</text>
  <rect class="factor" x="143.12" y="36.0" width="18" height="18" rx="3"/>
  <text class="label" x="152.12" y="23.0">prior_x1</text>
  <rect class="factor" x="143.12" y="116.0" width="18" height="18" rx="3"/>
  <text class="label" x="152.12" y="103.0">motion12</text>
  <rect class="factor" x="383.12" y="76.0" width="18" height="18" rx="3"/>
  <text class="label" x="392.12" y="63.0">motion23</text>
  <rect class="factor" x="623.12" y="36.0" width="18" height="18" rx="3"/>
  <text class="label" x="632.12" y="23.0">motion34</text>
  <rect class="factor" x="623.12" y="116.0" width="18" height="18" rx="3"/>
  <text class="label" x="632.12" y="103.0">beacon3</text>
  <rect class="factor" x="863.12" y="76.0" width="18" height="18" rx="3"/>
  <text class="label" x="872.12" y="63.0">beacon4</text>
</svg>
