<?xml version="1.0" encoding="utf-8"?>
<!-- Generator: Adobe Illustrator 24.2.1, SVG Export Plug-In . SVG Version: 6.00 Build 0)  -->
<svg version="1.1" id="Layer_1" xmlns="http://www.w3.org/2000/svg" xmlns:xlink="http://www.w3.org/1999/xlink" x="0px" y="0px"
	 viewBox="0 0 429.6 230.5" style="enable-background:new 0 0 429.6 230.5;" xml:space="preserve">
<style type="text/css">
	.st0{fill:#3F3F3F;}
	.st1{fill:none;stroke:#FFFFFF;stroke-width:2;stroke-miterlimit:10;}
	.st2{fill:url(#SVGID_1_);}
	.st3{fill:#A4D3F2;}
</style>
<path class="st0" d="M418.2,227.3H10.5c-4,0-7.2-3.2-7.2-7.2V10.8c0-4,3.2-7.2,7.2-7.2h407.7c4,0,7.2,3.2,7.2,7.2v209.3
	C425.4,224,422.2,227.3,418.2,227.3z"/>
<rect x="34.2" y="43.1" class="st1" width="140" height="140"/>
<linearGradient id="SVGID_1_" gradientUnits="userSpaceOnUse" x1="22.6567" y1="113.0999" x2="185.7567" y2="113.0999">
	<stop  offset="0" style="stop-color:#F3903F"/>
	<stop  offset="0.4295" style="stop-color:#D84799"/>
	<stop  offset="1" style="stop-color:#27AAE1"/>
</linearGradient>
<path class="st2" d="M129.2,127.1c0-6.1-4.9-11-11-11c-6.1,0-11,4.9-11,11s4.9,11,11,11C124.3,138.1,129.2,133.2,129.2,127.1z
	 M129.2,99.1c0-6.1-4.9-11-11-11c-6.1,0-11,4.9-11,11c0,6.1,4.9,11,11,11C124.3,110.1,129.2,105.2,129.2,99.1z M101.2,127.1
	c0-6.1-4.9-11-11-11c-6.1,0-11,4.9-11,11s4.9,11,11,11C96.3,138.1,101.2,133.2,101.2,127.1z M101.2,99.1c0-6.1-4.9-11-11-11
	c-6.1,0-11,4.9-11,11c0,6.1,4.9,11,11,11C96.3,110.1,101.2,105.2,101.2,99.1z M157.2,127.1c0-6.1-4.9-11-11-11s-11,4.9-11,11
	s4.9,11,11,11S157.2,133.2,157.2,127.1z M157.2,99.1c0-6.1-4.9-11-11-11s-11,4.9-11,11c0,6.1,4.9,11,11,11S157.2,105.2,157.2,99.1z
	 M129.2,71.1c0-6.1-4.9-11-11-11c-6.1,0-11,4.9-11,11c0,6.1,4.9,11,11,11C124.3,82.1,129.2,77.2,129.2,71.1z M101.2,71.1
	c0-6.1-4.9-11-11-11c-6.1,0-11,4.9-11,11c0,6.1,4.9,11,11,11C96.3,82.1,101.2,77.2,101.2,71.1z M157.2,71.1c0-6.1-4.9-11-11-11
	s-11,4.9-11,11c0,6.1,4.9,11,11,11S157.2,77.2,157.2,71.1z M129.2,155.1c0-6.1-4.9-11-11-11c-6.1,0-11,4.9-11,11s4.9,11,11,11
	C124.3,166.1,129.2,161.2,129.2,155.1z M101.2,155.1c0-6.1-4.9-11-11-11c-6.1,0-11,4.9-11,11s4.9,11,11,11
	C96.3,166.1,101.2,161.2,101.2,155.1z M157.2,155.1c0-6.1-4.9-11-11-11s-11,4.9-11,11s4.9,11,11,11S157.2,161.2,157.2,155.1z
	 M73.2,127.1c0-6.1-4.9-11-11-11s-11,4.9-11,11s4.9,11,11,11S73.2,133.2,73.2,127.1z M73.2,99.1c0-6.1-4.9-11-11-11s-11,4.9-11,11
	c0,6.1,4.9,11,11,11S73.2,105.2,73.2,99.1z M73.2,71.1c0-6.1-4.9-11-11-11s-11,4.9-11,11c0,6.1,4.9,11,11,11S73.2,77.2,73.2,71.1z
	 M73.2,155.1c0-6.1-4.9-11-11-11s-11,4.9-11,11s4.9,11,11,11S73.2,161.2,73.2,155.1z M45.8,194.6H22.7v-23.1h23.1V194.6z
	 M45.8,166.6H22.7v-23.1h23.1V166.6z M45.8,138.6H22.7v-23.1h23.1V138.6z M45.8,110.6H22.7V87.5h23.1V110.6z M45.8,82.6H22.7V59.5
	h23.1V82.6z M45.8,54.6H22.7V31.5h23.1V54.6z M73.8,54.6H50.7V31.5h23.1V54.6z M101.8,54.6H78.7V31.5h23.1V54.6z M129.8,54.6h-23.1
	V31.5h23.1V54.6z M157.8,54.6h-23.1V31.5h23.1V54.6z M185.8,54.6h-23.1V31.5h23.1V54.6z M185.8,82.6h-23.1V59.5h23.1V82.6z
	 M185.8,110.6h-23.1V87.5h23.1V110.6z M185.8,138.6h-23.1v-23.1h23.1V138.6z M185.8,166.6h-23.1v-23.1h23.1V166.6z M185.8,194.6
	h-23.1v-23.1h23.1V194.6z M73.8,194.6H50.7v-23.1h23.1V194.6z M129.8,194.6h-23.1v-23.1h23.1V194.6z M101.8,194.6H78.7v-23.1h23.1
	V194.6z M157.8,194.6h-23.1v-23.1h23.1V194.6z"/>
<g>
	<path class="st3" d="M206.2,151v4.6h-8.4v4.9h7.8v4.6h-7.8v9.6h-5.3V151H206.2z"/>
	<path class="st3" d="M221.5,172.4c-0.3,0.8-2.2,2.8-5.1,2.8c-4.3,0-7.2-3.5-7.2-7.8s2.9-7.8,7.2-7.8c2.8,0,4.6,1.6,5,2.6V160h5.4
		v14.8h-5.3V172.4z M218,171c2,0,3.4-1.5,3.4-3.6c0-2-1.4-3.6-3.4-3.6c-1.9,0-3.5,1.5-3.5,3.6C214.5,169.5,216.1,171,218,171z"/>
	<path class="st3" d="M242.4,170.1l2.5,3.7c-0.6,0.5-2.5,1.5-5.1,1.5c-5.1,0-8.5-3.1-8.5-7.8c0-4.8,3.4-7.8,8.5-7.8
		c2.6,0,4.6,1,5.1,1.5l-2.5,3.7c-0.3-0.2-1.1-1-2.6-1c-1.8,0-3.4,1.5-3.4,3.6c0,2.1,1.6,3.6,3.4,3.6
		C241.2,171,242.1,170.3,242.4,170.1z"/>
	<path class="st3" d="M249.9,160v-6.1h5.3v6.1h3.3v4.4h-3.3v4.2c0,1.2,0.3,2.1,1.3,2.1c0.6,0,1.2-0.4,1.3-0.5l1.8,3.8
		c-0.3,0.2-2.2,1.2-4.6,1.2c-3,0-5.1-1.6-5.1-5.1v-5.7h-2.5V160H249.9z"/>
	<path class="st3" d="M262.3,167.4c0-4.5,3.5-7.9,8.3-7.9c4.8,0,8.2,3.3,8.2,7.9s-3.4,7.8-8.2,7.8
		C265.8,175.2,262.3,172,262.3,167.4z M273.8,167.4c0-2-1.2-3.4-3.1-3.4c-1.9,0-3.2,1.4-3.2,3.4s1.2,3.3,3.2,3.3
		C272.6,170.8,273.8,169.4,273.8,167.4z"/>
	<path class="st3" d="M282.8,174.8V160h5.4v2.1c0.5-0.9,1.9-2.5,4.6-2.5c1.4,0,2.6,0.5,3.1,0.9l-2.1,4.4c-0.3-0.4-1.2-1-2.5-1
		c-2.2,0-3.2,2-3.2,3.4v7.4H282.8z"/>
	<path class="st3" d="M322.4,161.5v1.5c0,6.8-4.8,12.2-11.9,12.2c-7.3,0-12.2-5.5-12.2-12.3c0-6.8,4.9-12.3,12.2-12.3
		c6,0,8.9,2.9,10.4,5.4l-5,2.4c-1-1.5-2.6-2.8-5.4-2.8c-3.9,0-6.7,3.3-6.7,7.3c0,4,2.7,7.3,6.7,7.3c3.5,0,5.7-1.9,6-4.7h-6.1v-4.1
		H322.4z"/>
	<path class="st3" d="M326.6,174.8V160h5.4v2.1c0.5-0.9,1.9-2.5,4.6-2.5c1.4,0,2.6,0.5,3.1,0.9l-2.1,4.4c-0.3-0.4-1.2-1-2.5-1
		c-2.2,0-3.2,2-3.2,3.4v7.4H326.6z"/>
	<path class="st3" d="M353.9,172.4c-0.3,0.8-2.2,2.8-5.1,2.8c-4.3,0-7.2-3.5-7.2-7.8s2.9-7.8,7.2-7.8c2.8,0,4.6,1.6,5,2.6V160h5.4
		v14.8h-5.3V172.4z M350.4,171c2,0,3.4-1.5,3.4-3.6c0-2-1.4-3.6-3.4-3.6c-1.9,0-3.5,1.5-3.5,3.6C346.9,169.5,348.5,171,350.4,171z"
		/>
	<path class="st3" d="M364.2,182.3V160h5.4v2.2c0.5-1,2.5-2.6,5.3-2.6c4.3,0,6.9,3.5,6.9,7.8s-2.8,7.8-7.1,7.8
		c-3.1,0-4.9-2.1-5.2-2.8v9.9H364.2z M373.1,163.8c-2,0-3.5,1.6-3.5,3.6c0,2.1,1.5,3.6,3.5,3.6c1.9,0,3.4-1.5,3.4-3.6
		C376.5,165.3,375,163.8,373.1,163.8z"/>
	<path class="st3" d="M402.8,165.8v9h-5.4v-8.1c0-2.1-1-3.2-2.7-3.2c-1.7,0-3.3,1.4-3.3,3.4v7.9H386V150h5.4v12.2
		c0.4-1.2,2.5-2.6,4.9-2.6C399.4,159.6,402.8,161.4,402.8,165.8z"/>
</g>
<g>
	<g>
		<path class="st3" d="M197.4,184.1c1.8,0,3.4,0.7,3.4,2.6c0,1.3-0.8,2.2-1.7,2.4c1.1,0.1,2.1,0.9,2.1,2.6c0,1.8-1.2,3-3.4,3h-4
			v-10.6H197.4z M197.1,188.3c0.9,0,1.3-0.5,1.3-1.2c0-0.9-0.5-1.1-1.4-1.1h-0.9v2.4H197.1z M197.2,192.8c1,0,1.5-0.5,1.5-1.3
			c0-0.9-0.6-1.3-1.5-1.3h-1.1v2.6H197.2z"/>
		<path class="st3" d="M206.5,193.1c0.9,0,1.6-0.3,1.9-0.6l0.9,1.5c-0.4,0.4-1.2,0.9-3,0.9c-2.2,0-3.8-1.3-3.8-3.5
			c0-1.9,1.3-3.4,3.6-3.4c2.1,0,3.5,1.2,3.5,3.5c0,0.1,0,0.4,0,0.5h-4.8C204.9,192.6,205.5,193.1,206.5,193.1z M206.2,189.5
			c-0.8,0-1.2,0.5-1.3,1.1h2.4C207.3,190.1,207,189.5,206.2,189.5z"/>
		<path class="st3" d="M211.2,194.6v-11h2.4v11H211.2z"/>
		<path class="st3" d="M215.5,185.4c0-0.7,0.6-1.4,1.4-1.4c0.7,0,1.4,0.6,1.4,1.4c0,0.7-0.6,1.4-1.4,1.4
			C216.1,186.7,215.5,186.1,215.5,185.4z M215.6,188.1h2.4v6.6h-2.4V188.1z"/>
		<path class="st3" d="M223.6,193.1c0.9,0,1.6-0.3,1.9-0.6l0.9,1.5c-0.4,0.4-1.2,0.9-3,0.9c-2.2,0-3.8-1.3-3.8-3.5
			c0-1.9,1.3-3.4,3.6-3.4c2.1,0,3.5,1.2,3.5,3.5c0,0.1,0,0.4,0,0.5H222C222,192.6,222.6,193.1,223.6,193.1z M223.3,189.5
			c-0.8,0-1.2,0.5-1.3,1.1h2.4C224.4,190.1,224.1,189.5,223.3,189.5z"/>
		<path class="st3" d="M228.8,188.1v-1.7c0-1.9,1.4-2.9,2.8-2.9c1.1,0,1.7,0.4,1.9,0.6l-0.9,1.8c-0.1-0.1-0.3-0.3-0.6-0.3
			c-0.4,0-0.7,0.2-0.7,1.1v1.5h1.6v2h-1.6v4.6h-2.4v-4.6h-1.1v-2H228.8z"/>
		<path class="st3" d="M242.6,184.1c2,0,3.6,1.1,3.6,3.2c0,2.2-1.6,3.4-3.6,3.4h-1.5v3.9h-2.4v-10.6H242.6z M241.9,188.9
			c1,0,1.8-0.4,1.8-1.5c0-1.1-0.8-1.4-1.8-1.4h-0.8v2.9H241.9z"/>
		<path class="st3" d="M247.4,194.6v-6.6h2.4v0.9c0.2-0.4,0.9-1.1,2.1-1.1c0.6,0,1.2,0.2,1.4,0.4l-0.9,2c-0.1-0.2-0.5-0.4-1.1-0.4
			c-1,0-1.4,0.9-1.4,1.5v3.3H247.4z"/>
		<path class="st3" d="M253.7,191.4c0-2,1.6-3.5,3.7-3.5c2.2,0,3.7,1.5,3.7,3.5c0,2-1.5,3.5-3.7,3.5
			C255.2,194.8,253.7,193.4,253.7,191.4z M258.8,191.4c0-0.9-0.5-1.5-1.4-1.5s-1.4,0.6-1.4,1.5c0,0.9,0.6,1.5,1.4,1.5
			S258.8,192.3,258.8,191.4z"/>
		<path class="st3" d="M262.6,198v-9.9h2.4v1c0.2-0.4,1.1-1.2,2.4-1.2c1.9,0,3.1,1.6,3.1,3.5s-1.3,3.5-3.2,3.5
			c-1.4,0-2.2-0.9-2.3-1.3v4.4H262.6z M266.6,189.8c-0.9,0-1.6,0.7-1.6,1.6c0,0.9,0.7,1.6,1.6,1.6c0.8,0,1.5-0.7,1.5-1.6
			C268.1,190.5,267.4,189.8,266.6,189.8z"/>
		<path class="st3" d="M277.1,193.6c-0.1,0.3-1,1.3-2.3,1.3c-1.9,0-3.2-1.5-3.2-3.5s1.3-3.5,3.2-3.5c1.2,0,2,0.7,2.2,1.2v-1h2.4v6.6
			h-2.4V193.6z M275.5,193c0.9,0,1.5-0.7,1.5-1.6c0-0.9-0.6-1.6-1.5-1.6c-0.8,0-1.6,0.7-1.6,1.6C274,192.3,274.7,193,275.5,193z"/>
		<path class="st3" d="M281.2,196.8l1.4-1.5c0.4,0.4,1,0.9,2.1,0.9c1.1,0,1.8-0.6,1.8-1.6v-1.1c-0.1,0.3-1,1.3-2.3,1.3
			c-1.9,0-3.2-1.5-3.2-3.5s1.3-3.5,3.2-3.5c1.2,0,2,0.7,2.2,1.2v-1h2.4v6.7c0,2.2-1.8,3.3-4,3.3C283.4,198.2,282,197.8,281.2,196.8z
			 M284.9,193c0.9,0,1.5-0.7,1.5-1.6c0-0.9-0.6-1.6-1.5-1.6c-0.8,0-1.6,0.7-1.6,1.6C283.3,192.3,284,193,284.9,193z"/>
		<path class="st3" d="M295.8,193.6c-0.1,0.3-1,1.3-2.3,1.3c-1.9,0-3.2-1.5-3.2-3.5s1.3-3.5,3.2-3.5c1.2,0,2,0.7,2.2,1.2v-1h2.4v6.6
			h-2.4V193.6z M294.2,193c0.9,0,1.5-0.7,1.5-1.6c0-0.9-0.6-1.6-1.5-1.6c-0.8,0-1.6,0.7-1.6,1.6C292.7,192.3,293.4,193,294.2,193z"
			/>
		<path class="st3" d="M300.6,188.1v-2.7h2.4v2.7h1.5v2h-1.5v1.9c0,0.6,0.1,0.9,0.6,0.9c0.3,0,0.5-0.2,0.6-0.2l0.8,1.7
			c-0.1,0.1-1,0.5-2.1,0.5c-1.3,0-2.2-0.7-2.2-2.3v-2.5h-1.1v-2H300.6z"/>
		<path class="st3" d="M306.1,185.4c0-0.7,0.6-1.4,1.4-1.4c0.7,0,1.4,0.6,1.4,1.4c0,0.7-0.6,1.4-1.4,1.4
			C306.7,186.7,306.1,186.1,306.1,185.4z M306.2,188.1h2.4v6.6h-2.4V188.1z"/>
		<path class="st3" d="M310.2,191.4c0-2,1.6-3.5,3.7-3.5c2.2,0,3.7,1.5,3.7,3.5c0,2-1.5,3.5-3.7,3.5
			C311.8,194.8,310.2,193.4,310.2,191.4z M315.3,191.4c0-0.9-0.5-1.5-1.4-1.5s-1.4,0.6-1.4,1.5c0,0.9,0.6,1.5,1.4,1.5
			S315.3,192.3,315.3,191.4z"/>
		<path class="st3" d="M326.5,190.6v4h-2.4V191c0-0.9-0.5-1.4-1.2-1.4c-0.7,0-1.4,0.6-1.4,1.5v3.5h-2.4v-6.6h2.4v1
			c0.2-0.5,1.1-1.2,2.2-1.2C325,187.9,326.5,188.7,326.5,190.6z"/>
		<path class="st3" d="M338.6,184.1l4.2,10.6h-2.5l-0.8-2.1h-4.1l-0.8,2.1h-2.5l4.2-10.6H338.6z M338.7,190.5l-1.2-3.5h0l-1.2,3.5
			H338.7z"/>
		<path class="st3" d="M343.9,194.6v-11h2.4v11H343.9z"/>
		<path class="st3" d="M348,196.8l1.4-1.5c0.4,0.4,1,0.9,2.1,0.9c1.1,0,1.8-0.6,1.8-1.6v-1.1c-0.1,0.3-1,1.3-2.3,1.3
			c-1.9,0-3.2-1.5-3.2-3.5s1.3-3.5,3.2-3.5c1.2,0,2,0.7,2.2,1.2v-1h2.4v6.7c0,2.2-1.8,3.3-4,3.3C350.3,198.2,348.8,197.8,348,196.8z
			 M351.7,193c0.9,0,1.5-0.7,1.5-1.6c0-0.9-0.6-1.6-1.5-1.6c-0.8,0-1.6,0.7-1.6,1.6C350.2,192.3,350.9,193,351.7,193z"/>
		<path class="st3" d="M357.2,191.4c0-2,1.6-3.5,3.7-3.5c2.2,0,3.7,1.5,3.7,3.5c0,2-1.5,3.5-3.7,3.5
			C358.7,194.8,357.2,193.4,357.2,191.4z M362.3,191.4c0-0.9-0.5-1.5-1.4-1.5s-1.4,0.6-1.4,1.5c0,0.9,0.6,1.5,1.4,1.5
			S362.3,192.3,362.3,191.4z"/>
		<path class="st3" d="M365.9,194.6v-6.6h2.4v0.9c0.2-0.4,0.9-1.1,2.1-1.1c0.6,0,1.2,0.2,1.4,0.4l-0.9,2c-0.1-0.2-0.5-0.4-1.1-0.4
			c-1,0-1.4,0.9-1.4,1.5v3.3H365.9z"/>
		<path class="st3" d="M372.7,185.4c0-0.7,0.6-1.4,1.4-1.4c0.7,0,1.4,0.6,1.4,1.4c0,0.7-0.6,1.4-1.4,1.4
			C373.3,186.7,372.7,186.1,372.7,185.4z M372.9,188.1h2.4v6.6h-2.4V188.1z"/>
		<path class="st3" d="M377.8,188.1v-2.7h2.4v2.7h1.5v2h-1.5v1.9c0,0.6,0.1,0.9,0.6,0.9c0.3,0,0.5-0.2,0.6-0.2l0.8,1.7
			c-0.1,0.1-1,0.5-2.1,0.5c-1.3,0-2.2-0.7-2.2-2.3v-2.5h-1.1v-2H377.8z"/>
		<path class="st3" d="M390.8,190.6v4h-2.4V191c0-0.9-0.5-1.4-1.2-1.4c-0.7,0-1.4,0.6-1.4,1.5v3.5h-2.4v-11h2.4v5.4
			c0.2-0.5,1.1-1.2,2.2-1.2C389.3,187.9,390.8,188.7,390.8,190.6z"/>
		<path class="st3" d="M404,190.8v3.9h-2.4v-3.5c0-0.9-0.2-1.5-1-1.5c-0.8,0-1.2,0.6-1.2,1.5v3.5h-2.2v-3.5c0-0.9-0.3-1.5-1-1.5
			c-0.8,0-1.2,0.6-1.2,1.5v3.5h-2.4v-6.6h2.4v0.9c0.2-0.5,1.2-1.1,2.2-1.1c1.2,0,1.7,0.6,2,1.3c0.2-0.6,1.2-1.3,2.4-1.3
			C403,187.9,404,188.8,404,190.8z"/>
	</g>
</g>
</svg>
