<?xml version="1.0" encoding="utf-8"?>
<!-- Generator: Adobe Illustrator 24.2.1, SVG Export Plug-In . SVG Version: 6.00 Build 0)  -->
<svg version="1.1" id="Layer_1" xmlns="http://www.w3.org/2000/svg" xmlns:xlink="http://www.w3.org/1999/xlink" x="0px" y="0px"
	 viewBox="0 0 429.6 230.5" style="enable-background:new 0 0 429.6 230.5;" xml:space="preserve">
<style type="text/css">
	.st0{fill:#3F3F3F;}
	.st1{fill:none;stroke:#FFFFFF;stroke-width:2;stroke-miterlimit:10;}
	.st2{fill:url(#SVGID_1_);}
	.st3{fill:#A4D3F2;}
</style>
<path class="st0" d="M418.5,227.3H10.7c-4,0-7.2-3.2-7.2-7.2V10.8c0-4,3.2-7.2,7.2-7.2h407.7c4,0,7.2,3.2,7.2,7.2v209.3
	C425.7,224,422.4,227.3,418.5,227.3z"/>
<g>
	<rect x="34.1" y="43.1" class="st1" width="140" height="140"/>
	<linearGradient id="SVGID_1_" gradientUnits="userSpaceOnUse" x1="22.577" y1="113.0999" x2="185.677" y2="113.0999">
		<stop  offset="0" style="stop-color:#F3903F"/>
		<stop  offset="0.4295" style="stop-color:#D84799"/>
		<stop  offset="1" style="stop-color:#27AAE1"/>
	</linearGradient>
	<path class="st2" d="M129.1,127.1c0-6.1-4.9-11-11-11c-6.1,0-11,4.9-11,11s4.9,11,11,11C124.2,138.1,129.1,133.2,129.1,127.1z
		 M129.1,99.1c0-6.1-4.9-11-11-11c-6.1,0-11,4.9-11,11c0,6.1,4.9,11,11,11C124.2,110.1,129.1,105.2,129.1,99.1z M101.1,127.1
		c0-6.1-4.9-11-11-11c-6.1,0-11,4.9-11,11s4.9,11,11,11C96.2,138.1,101.1,133.2,101.1,127.1z M101.1,99.1c0-6.1-4.9-11-11-11
		c-6.1,0-11,4.9-11,11c0,6.1,4.9,11,11,11C96.2,110.1,101.1,105.2,101.1,99.1z M157.1,127.1c0-6.1-4.9-11-11-11s-11,4.9-11,11
		s4.9,11,11,11S157.1,133.2,157.1,127.1z M157.1,99.1c0-6.1-4.9-11-11-11s-11,4.9-11,11c0,6.1,4.9,11,11,11S157.1,105.2,157.1,99.1z
		 M129.1,71.1c0-6.1-4.9-11-11-11c-6.1,0-11,4.9-11,11c0,6.1,4.9,11,11,11C124.2,82.1,129.1,77.2,129.1,71.1z M101.1,71.1
		c0-6.1-4.9-11-11-11c-6.1,0-11,4.9-11,11c0,6.1,4.9,11,11,11C96.2,82.1,101.1,77.2,101.1,71.1z M157.1,71.1c0-6.1-4.9-11-11-11
		s-11,4.9-11,11c0,6.1,4.9,11,11,11S157.1,77.2,157.1,71.1z M129.1,155.1c0-6.1-4.9-11-11-11c-6.1,0-11,4.9-11,11s4.9,11,11,11
		C124.2,166.1,129.1,161.2,129.1,155.1z M101.1,155.1c0-6.1-4.9-11-11-11c-6.1,0-11,4.9-11,11s4.9,11,11,11
		C96.2,166.1,101.1,161.2,101.1,155.1z M157.1,155.1c0-6.1-4.9-11-11-11s-11,4.9-11,11s4.9,11,11,11S157.1,161.2,157.1,155.1z
		 M73.1,127.1c0-6.1-4.9-11-11-11s-11,4.9-11,11s4.9,11,11,11S73.1,133.2,73.1,127.1z M73.1,99.1c0-6.1-4.9-11-11-11s-11,4.9-11,11
		c0,6.1,4.9,11,11,11S73.1,105.2,73.1,99.1z M73.1,71.1c0-6.1-4.9-11-11-11s-11,4.9-11,11c0,6.1,4.9,11,11,11S73.1,77.2,73.1,71.1z
		 M73.1,155.1c0-6.1-4.9-11-11-11s-11,4.9-11,11s4.9,11,11,11S73.1,161.2,73.1,155.1z M45.7,194.6H22.6v-23.1h23.1V194.6z
		 M45.7,166.6H22.6v-23.1h23.1V166.6z M45.7,138.6H22.6v-23.1h23.1V138.6z M45.7,110.6H22.6V87.5h23.1V110.6z M45.7,82.6H22.6V59.5
		h23.1V82.6z M45.7,54.6H22.6V31.5h23.1V54.6z M73.7,54.6H50.6V31.5h23.1V54.6z M101.7,54.6H78.6V31.5h23.1V54.6z M129.7,54.6h-23.1
		V31.5h23.1V54.6z M157.7,54.6h-23.1V31.5h23.1V54.6z M185.7,54.6h-23.1V31.5h23.1V54.6z M185.7,82.6h-23.1V59.5h23.1V82.6z
		 M185.7,110.6h-23.1V87.5h23.1V110.6z M185.7,138.6h-23.1v-23.1h23.1V138.6z M185.7,166.6h-23.1v-23.1h23.1V166.6z M185.7,194.6
		h-23.1v-23.1h23.1V194.6z M73.7,194.6H50.6v-23.1h23.1V194.6z M129.7,194.6h-23.1v-23.1h23.1V194.6z M101.7,194.6H78.6v-23.1h23.1
		V194.6z M157.7,194.6h-23.1v-23.1h23.1V194.6z"/>
	<g>
		<path class="st3" d="M210,151v4.6h-8.4v4.9h7.8v4.6h-7.8v9.6h-5.3V151H210z"/>
		<path class="st3" d="M225.3,172.4c-0.3,0.8-2.2,2.8-5.1,2.8c-4.3,0-7.2-3.5-7.2-7.8s2.9-7.8,7.2-7.8c2.8,0,4.6,1.6,5,2.6V160h5.4
			v14.8h-5.3V172.4z M221.8,171c2,0,3.4-1.5,3.4-3.6c0-2-1.4-3.6-3.4-3.6c-1.9,0-3.5,1.5-3.5,3.6C218.3,169.5,219.9,171,221.8,171z"
			/>
		<path class="st3" d="M246.3,170.1l2.5,3.7c-0.6,0.5-2.5,1.5-5.1,1.5c-5.1,0-8.5-3.1-8.5-7.8c0-4.8,3.4-7.8,8.5-7.8
			c2.6,0,4.6,1,5.1,1.5l-2.5,3.7c-0.3-0.2-1.1-1-2.6-1c-1.8,0-3.4,1.5-3.4,3.6c0,2.1,1.6,3.6,3.4,3.6C245,171,246,170.3,246.3,170.1
			z"/>
		<path class="st3" d="M253.7,160v-6.1h5.3v6.1h3.3v4.4H259v4.2c0,1.2,0.3,2.1,1.3,2.1c0.6,0,1.2-0.4,1.3-0.5l1.8,3.8
			c-0.3,0.2-2.2,1.2-4.6,1.2c-3,0-5.1-1.6-5.1-5.1v-5.7h-2.5V160H253.7z"/>
		<path class="st3" d="M266.1,167.4c0-4.5,3.5-7.9,8.3-7.9c4.8,0,8.2,3.3,8.2,7.9s-3.4,7.8-8.2,7.8
			C269.6,175.2,266.1,172,266.1,167.4z M277.6,167.4c0-2-1.2-3.4-3.1-3.4c-1.9,0-3.2,1.4-3.2,3.4s1.2,3.3,3.2,3.3
			C276.4,170.8,277.6,169.4,277.6,167.4z"/>
		<path class="st3" d="M286.6,174.8V160h5.4v2.1c0.5-0.9,1.9-2.5,4.6-2.5c1.4,0,2.6,0.5,3.1,0.9l-2.1,4.4c-0.3-0.4-1.2-1-2.5-1
			c-2.2,0-3.2,2-3.2,3.4v7.4H286.6z"/>
		<path class="st3" d="M326.2,161.5v1.5c0,6.8-4.8,12.2-11.9,12.2c-7.3,0-12.2-5.5-12.2-12.3c0-6.8,4.9-12.3,12.2-12.3
			c6,0,8.9,2.9,10.4,5.4l-5,2.4c-1-1.5-2.6-2.8-5.4-2.8c-3.9,0-6.7,3.3-6.7,7.3c0,4,2.7,7.3,6.7,7.3c3.5,0,5.7-1.9,6-4.7h-6.1v-4.1
			H326.2z"/>
		<path class="st3" d="M330.4,174.8V160h5.4v2.1c0.5-0.9,1.9-2.5,4.6-2.5c1.4,0,2.6,0.5,3.1,0.9l-2.1,4.4c-0.3-0.4-1.2-1-2.5-1
			c-2.2,0-3.2,2-3.2,3.4v7.4H330.4z"/>
		<path class="st3" d="M357.7,172.4c-0.3,0.8-2.2,2.8-5.1,2.8c-4.3,0-7.2-3.5-7.2-7.8s2.9-7.8,7.2-7.8c2.8,0,4.6,1.6,5,2.6V160h5.4
			v14.8h-5.3V172.4z M354.2,171c2,0,3.4-1.5,3.4-3.6c0-2-1.4-3.6-3.4-3.6c-1.9,0-3.5,1.5-3.5,3.6C350.7,169.5,352.3,171,354.2,171z"
			/>
		<path class="st3" d="M368,182.3V160h5.4v2.2c0.5-1,2.5-2.6,5.3-2.6c4.3,0,6.9,3.5,6.9,7.8s-2.8,7.8-7.1,7.8
			c-3.1,0-4.9-2.1-5.2-2.8v9.9H368z M376.9,163.8c-2,0-3.5,1.6-3.5,3.6c0,2.1,1.5,3.6,3.5,3.6c1.9,0,3.4-1.5,3.4-3.6
			C380.4,165.3,378.8,163.8,376.9,163.8z"/>
		<path class="st3" d="M406.6,165.8v9h-5.4v-8.1c0-2.1-1-3.2-2.7-3.2c-1.7,0-3.3,1.4-3.3,3.4v7.9h-5.4V150h5.4v12.2
			c0.4-1.2,2.5-2.6,4.9-2.6C403.3,159.6,406.6,161.4,406.6,165.8z"/>
	</g>
	<g>
		<g>
			<path class="st3" d="M199.9,184.1c1.8,0,3.4,0.7,3.4,2.6c0,1.3-0.8,2.2-1.7,2.4c1.1,0.1,2.1,0.9,2.1,2.6c0,1.8-1.2,3-3.4,3h-4
				v-10.6H199.9z M199.7,188.3c0.9,0,1.3-0.5,1.3-1.2c0-0.9-0.5-1.1-1.4-1.1h-0.9v2.4H199.7z M199.8,192.8c1,0,1.5-0.5,1.5-1.3
				c0-0.9-0.6-1.3-1.5-1.3h-1.1v2.6H199.8z"/>
			<path class="st3" d="M209,193.1c0.9,0,1.6-0.3,1.9-0.6l0.9,1.5c-0.4,0.4-1.2,0.9-3,0.9c-2.2,0-3.8-1.3-3.8-3.5
				c0-1.9,1.3-3.4,3.6-3.4c2.1,0,3.5,1.2,3.5,3.5c0,0.1,0,0.4,0,0.5h-4.8C207.5,192.6,208.1,193.1,209,193.1z M208.7,189.5
				c-0.8,0-1.2,0.5-1.3,1.1h2.4C209.9,190.1,209.5,189.5,208.7,189.5z"/>
			<path class="st3" d="M213.8,194.6v-11h2.4v11H213.8z"/>
			<path class="st3" d="M218,185.4c0-0.7,0.6-1.4,1.4-1.4c0.7,0,1.4,0.6,1.4,1.4c0,0.7-0.6,1.4-1.4,1.4
				C218.6,186.7,218,186.1,218,185.4z M218.2,188.1h2.4v6.6h-2.4V188.1z"/>
			<path class="st3" d="M226.1,193.1c0.9,0,1.6-0.3,1.9-0.6l0.9,1.5c-0.4,0.4-1.2,0.9-3,0.9c-2.2,0-3.8-1.3-3.8-3.5
				c0-1.9,1.3-3.4,3.6-3.4c2.1,0,3.5,1.2,3.5,3.5c0,0.1,0,0.4,0,0.5h-4.8C224.5,192.6,225.1,193.1,226.1,193.1z M225.8,189.5
				c-0.8,0-1.2,0.5-1.3,1.1h2.4C227,190.1,226.6,189.5,225.8,189.5z"/>
			<path class="st3" d="M231.4,188.1v-1.7c0-1.9,1.4-2.9,2.8-2.9c1.1,0,1.7,0.4,1.9,0.6l-0.9,1.8c-0.1-0.1-0.3-0.3-0.6-0.3
				c-0.4,0-0.7,0.2-0.7,1.1v1.5h1.6v2h-1.6v4.6h-2.4v-4.6h-1.1v-2H231.4z"/>
			<path class="st3" d="M245.1,184.1c2,0,3.6,1.1,3.6,3.2c0,2.2-1.6,3.4-3.6,3.4h-1.5v3.9h-2.4v-10.6H245.1z M244.5,188.9
				c1,0,1.8-0.4,1.8-1.5c0-1.1-0.8-1.4-1.8-1.4h-0.8v2.9H244.5z"/>
			<path class="st3" d="M249.9,194.6v-6.6h2.4v0.9c0.2-0.4,0.9-1.1,2.1-1.1c0.6,0,1.2,0.2,1.4,0.4l-0.9,2c-0.1-0.2-0.5-0.4-1.1-0.4
				c-1,0-1.4,0.9-1.4,1.5v3.3H249.9z"/>
			<path class="st3" d="M256.2,191.4c0-2,1.6-3.5,3.7-3.5c2.2,0,3.7,1.5,3.7,3.5c0,2-1.5,3.5-3.7,3.5
				C257.8,194.8,256.2,193.4,256.2,191.4z M261.3,191.4c0-0.9-0.5-1.5-1.4-1.5s-1.4,0.6-1.4,1.5c0,0.9,0.6,1.5,1.4,1.5
				S261.3,192.3,261.3,191.4z"/>
			<path class="st3" d="M265.2,198v-9.9h2.4v1c0.2-0.4,1.1-1.2,2.4-1.2c1.9,0,3.1,1.6,3.1,3.5s-1.3,3.5-3.2,3.5
				c-1.4,0-2.2-0.9-2.3-1.3v4.4H265.2z M269.1,189.8c-0.9,0-1.6,0.7-1.6,1.6c0,0.9,0.7,1.6,1.6,1.6c0.8,0,1.5-0.7,1.5-1.6
				C270.6,190.5,269.9,189.8,269.1,189.8z"/>
			<path class="st3" d="M279.6,193.6c-0.1,0.3-1,1.3-2.3,1.3c-1.9,0-3.2-1.5-3.2-3.5s1.3-3.5,3.2-3.5c1.2,0,2,0.7,2.2,1.2v-1h2.4
				v6.6h-2.4V193.6z M278.1,193c0.9,0,1.5-0.7,1.5-1.6c0-0.9-0.6-1.6-1.5-1.6c-0.8,0-1.6,0.7-1.6,1.6
				C276.5,192.3,277.2,193,278.1,193z"/>
			<path class="st3" d="M283.7,196.8l1.4-1.5c0.4,0.4,1,0.9,2.1,0.9c1.1,0,1.8-0.6,1.8-1.6v-1.1c-0.1,0.3-1,1.3-2.3,1.3
				c-1.9,0-3.2-1.5-3.2-3.5s1.3-3.5,3.2-3.5c1.2,0,2,0.7,2.2,1.2v-1h2.4v6.7c0,2.2-1.8,3.3-4,3.3
				C285.9,198.2,284.5,197.8,283.7,196.8z M287.4,193c0.9,0,1.5-0.7,1.5-1.6c0-0.9-0.6-1.6-1.5-1.6c-0.8,0-1.6,0.7-1.6,1.6
				C285.8,192.3,286.5,193,287.4,193z"/>
			<path class="st3" d="M298.3,193.6c-0.1,0.3-1,1.3-2.3,1.3c-1.9,0-3.2-1.5-3.2-3.5s1.3-3.5,3.2-3.5c1.2,0,2,0.7,2.2,1.2v-1h2.4
				v6.6h-2.4V193.6z M296.7,193c0.9,0,1.5-0.7,1.5-1.6c0-0.9-0.6-1.6-1.5-1.6c-0.8,0-1.6,0.7-1.6,1.6
				C295.2,192.3,295.9,193,296.7,193z"/>
			<path class="st3" d="M303.1,188.1v-2.7h2.4v2.7h1.5v2h-1.5v1.9c0,0.6,0.1,0.9,0.6,0.9c0.3,0,0.5-0.2,0.6-0.2l0.8,1.7
				c-0.1,0.1-1,0.5-2.1,0.5c-1.3,0-2.2-0.7-2.2-2.3v-2.5H302v-2H303.1z"/>
			<path class="st3" d="M308.6,185.4c0-0.7,0.6-1.4,1.4-1.4c0.7,0,1.4,0.6,1.4,1.4c0,0.7-0.6,1.4-1.4,1.4
				C309.2,186.7,308.6,186.1,308.6,185.4z M308.7,188.1h2.4v6.6h-2.4V188.1z"/>
			<path class="st3" d="M312.8,191.4c0-2,1.6-3.5,3.7-3.5c2.2,0,3.7,1.5,3.7,3.5c0,2-1.5,3.5-3.7,3.5
				C314.3,194.8,312.8,193.4,312.8,191.4z M317.9,191.4c0-0.9-0.5-1.5-1.4-1.5s-1.4,0.6-1.4,1.5c0,0.9,0.6,1.5,1.4,1.5
				S317.9,192.3,317.9,191.4z"/>
			<path class="st3" d="M329.1,190.6v4h-2.4V191c0-0.9-0.5-1.4-1.2-1.4c-0.7,0-1.4,0.6-1.4,1.5v3.5h-2.4v-6.6h2.4v1
				c0.2-0.5,1.1-1.2,2.2-1.2C327.6,187.9,329.1,188.7,329.1,190.6z"/>
			<path class="st3" d="M341.1,184.1l4.2,10.6h-2.5l-0.8-2.1h-4.1l-0.8,2.1h-2.5l4.2-10.6H341.1z M341.2,190.5l-1.2-3.5h0l-1.2,3.5
				H341.2z"/>
			<path class="st3" d="M346.4,194.6v-11h2.4v11H346.4z"/>
			<path class="st3" d="M350.6,196.8l1.4-1.5c0.4,0.4,1,0.9,2.1,0.9c1.1,0,1.8-0.6,1.8-1.6v-1.1c-0.1,0.3-1,1.3-2.3,1.3
				c-1.9,0-3.2-1.5-3.2-3.5s1.3-3.5,3.2-3.5c1.2,0,2,0.7,2.2,1.2v-1h2.4v6.7c0,2.2-1.8,3.3-4,3.3
				C352.8,198.2,351.4,197.8,350.6,196.8z M354.3,193c0.9,0,1.5-0.7,1.5-1.6c0-0.9-0.6-1.6-1.5-1.6c-0.8,0-1.6,0.7-1.6,1.6
				C352.7,192.3,353.4,193,354.3,193z"/>
			<path class="st3" d="M359.7,191.4c0-2,1.6-3.5,3.7-3.5c2.2,0,3.7,1.5,3.7,3.5c0,2-1.5,3.5-3.7,3.5
				C361.3,194.8,359.7,193.4,359.7,191.4z M364.8,191.4c0-0.9-0.5-1.5-1.4-1.5s-1.4,0.6-1.4,1.5c0,0.9,0.6,1.5,1.4,1.5
				S364.8,192.3,364.8,191.4z"/>
			<path class="st3" d="M368.5,194.6v-6.6h2.4v0.9c0.2-0.4,0.9-1.1,2.1-1.1c0.6,0,1.2,0.2,1.4,0.4l-0.9,2c-0.1-0.2-0.5-0.4-1.1-0.4
				c-1,0-1.4,0.9-1.4,1.5v3.3H368.5z"/>
			<path class="st3" d="M375.3,185.4c0-0.7,0.6-1.4,1.4-1.4c0.7,0,1.4,0.6,1.4,1.4c0,0.7-0.6,1.4-1.4,1.4
				C375.9,186.7,375.3,186.1,375.3,185.4z M375.4,188.1h2.4v6.6h-2.4V188.1z"/>
			<path class="st3" d="M380.4,188.1v-2.7h2.4v2.7h1.5v2h-1.5v1.9c0,0.6,0.1,0.9,0.6,0.9c0.3,0,0.5-0.2,0.6-0.2l0.8,1.7
				c-0.1,0.1-1,0.5-2.1,0.5c-1.3,0-2.2-0.7-2.2-2.3v-2.5h-1.1v-2H380.4z"/>
			<path class="st3" d="M393.3,190.6v4h-2.4V191c0-0.9-0.5-1.4-1.2-1.4c-0.7,0-1.4,0.6-1.4,1.5v3.5h-2.4v-11h2.4v5.4
				c0.2-0.5,1.1-1.2,2.2-1.2C391.8,187.9,393.3,188.7,393.3,190.6z"/>
			<path class="st3" d="M406.6,190.8v3.9h-2.4v-3.5c0-0.9-0.2-1.5-1-1.5c-0.8,0-1.2,0.6-1.2,1.5v3.5h-2.2v-3.5c0-0.9-0.3-1.5-1-1.5
				c-0.8,0-1.2,0.6-1.2,1.5v3.5h-2.4v-6.6h2.4v0.9c0.2-0.5,1.2-1.1,2.2-1.1c1.2,0,1.7,0.6,2,1.3c0.2-0.6,1.2-1.3,2.4-1.3
				C405.6,187.9,406.6,188.8,406.6,190.8z"/>
		</g>
	</g>
</g>
</svg>
